<?xml version="1.0" encoding="UTF-8"?>
<svg id="Layer_1" xmlns="http://www.w3.org/2000/svg" version="1.1" viewBox="0 0 1024 1024">
  <!-- Generator: Adobe Illustrator 29.0.1, SVG Export Plug-In . SVG Version: 2.1.0 Build 192)  -->
  <defs>
    <style>
      .st0 {
        fill: #666;
      }
    </style>
  </defs>
  <path class="st0" d="M374.6,726.6c-26.9,19.9-54.3,38-85.1,50.6-11.9,4.9-24.1,8.5-37,9.6-6.8.6-13.3-.5-19.4-3.6-8.3-4.2-11.3-12.3-8.2-20.6,1.4-3.8,4.5-5.1,7.6-6.7,31.3-16,61.6-33.9,90.2-54.5,33.3-23.8,63.7-51,92.4-80.1,35-35.4,66.3-73.8,95.9-113.7.6-.8,1.2-1.6,1.7-2.5,2-3.3,1-5.1-2.9-5-9.3.3-18.6.5-27.9,1.2-11.9,1-23.8,2.3-35.7,3.8-20.4,2.5-40.8,5.2-61,8.9-14.5,2.7-29.1,4.8-43.7,7.1-18.7,2.9-37.3,5.8-56,8.2-14.6,1.9-29,2.8-43.7,1.9-17.7-1.2-25.8-13.1-20.1-29.9,1.8-5.5,4.8-10.1,8.8-14.3,23.6-25.2,50.1-47.3,76.3-69.7,32.9-28.1,66.1-55.9,99.1-84,10.5-9,20.4-18.7,29.9-28.7,2.3-2.4,4.2-5,6.3-7.5-1.6-2.2-3.5-1.8-5.3-1.8-22.5-.6-44.9,1.2-67.2,3.7-49.8,5.6-98.9,15.6-148,25.4-1.3.3-2.6.5-3.9.6-.4,0-.9-.3-2-.8,2.8-6.3,5.4-12.5,8.2-18.7,5.3-11.5,10.2-23.2,16.5-34.2,1.6-2.7,3.6-4.2,6.5-4.8,25-4.5,50-8.7,75.1-12.3,20.7-2.9,41.4-5.5,62.2-7.5,15.7-1.6,31.4-2.7,47.2-3.5,13.2-.7,26.3-.7,39.4-.7,6.1,0,12.2.9,18.2,2.3,18.7,4.3,23.2,21.3,20.6,34.6-2.9,14.3-11.5,25.7-20.5,36.7-21.4,26-46.7,47.9-72.2,69.7-31.1,26.6-63.8,51.5-93.2,80-1.2,1.1-2.7,1.9-2.9,4.2,6.3,1.5,12.5,0,18.6-.9,26.3-3.9,52.4-8.2,78.7-11.8,36.4-5.1,73-8.1,109.8-7.8,7.2,0,14.3.6,21.4.9,2.8.2,4.6-1,6.3-3.2,20.9-27.4,41.6-55,63.1-81.9,22.7-28.5,46-56.7,73.3-81,17.6-15.7,37-28.4,60.1-34.5,37.3-9.8,66.6,8.8,79,42.3,8.5,23.1,6.7,46.8.2,70.1-10.4,37.5-31.1,68.6-60.5,93.9-5.6,4.9-12,8.3-19.9,8-12.9-.4-21.1-11.3-17.6-23.7,3.7-13,11.4-24,18.1-35.5,8.2-13.9,16.9-27.6,22.7-42.8,5-13.1,8.8-26.5,8.5-40.7-.2-9.6-4.4-16.4-12.1-18.8-5.6-1.7-11.1-.7-16.6,1.3-13.8,5.1-24.5,14.6-35,24.4-29.8,27.7-54.6,59.7-78.9,92.1-10.1,13.5-20.2,26.9-30.1,40.1.8,2.3,2.6,2.7,4,3.3,32.3,13.5,58.3,35.6,82.5,60.4,36.7,37.6,68.1,79.3,98.2,122.1,15.9,22.6,31.4,45.6,45.4,69.4,2.4,4,4.6,8.1,6.6,12.4,3.6,7.9,2.1,15.5-4.1,21.5-7.7,7.5-16.6,11.7-27.6,8-4.6-1.6-8-4.6-10.8-8.5-16.3-23.1-32.6-46.3-49.1-69.3-26.4-36.9-53.7-73.1-84.7-106.2-19.5-20.8-40.1-40.5-65.3-54.6-7.9-4.4-16.3-7.5-24.8-10.4-3.7-1.2-5.9,0-8,2.9-25.1,34.5-51.4,68-79.2,100.5-35.7,41.7-74,80.8-118.2,114.3Z"/>
</svg>