<?xml version="1.0" encoding="UTF-8"?>
<svg id="Layer_2" data-name="Layer 2" xmlns="http://www.w3.org/2000/svg" viewBox="0 0 190.22 190.22">
  <g id="OBJECTS">
    <g>
      <path d="M95.11,190.22C42.67,190.22,0,147.55,0,95.11S42.67,0,95.11,0s95.11,42.67,95.11,95.11-42.67,95.11-95.11,95.11ZM95.11,2C43.77,2,2,43.77,2,95.11s41.77,93.11,93.11,93.11,93.11-41.77,93.11-93.11S146.45,2,95.11,2Z" fill="#333d65"/>
      <g>
        <g>
          <g>
            <circle cx="96.18" cy="95.11" r="63.58" transform="translate(-39.08 95.87) rotate(-45)" fill="#333d65"/>
            <g>
              <path d="M96.18,31.53c-35.11,0-63.57,28.47-63.57,63.58s28.46,63.58,63.57,63.58,63.58-28.47,63.58-63.58-28.47-63.58-63.58-63.58ZM96.18,143.48c-26.71,0-48.36-21.66-48.36-48.37s21.65-48.36,48.36-48.36,48.37,21.65,48.37,48.36-21.66,48.37-48.37,48.37Z" fill="#fff" opacity=".1"/>
              <path d="M96.18,31.53c-35.11,0-63.57,28.47-63.57,63.58s28.46,63.58,63.57,63.58,63.58-28.47,63.58-63.58-28.47-63.58-63.58-63.58ZM96.18,151.01c-30.87,0-55.89-25.03-55.89-55.9s25.02-55.89,55.89-55.89,55.9,25.02,55.9,55.89-25.03,55.9-55.9,55.9Z" fill="#fff" opacity=".1"/>
            </g>
            <path d="M96.18,159.69c-35.61,0-64.58-28.97-64.58-64.58S60.58,30.53,96.18,30.53s64.58,28.97,64.58,64.58-28.97,64.58-64.58,64.58ZM96.18,32.53c-34.5,0-62.58,28.07-62.58,62.58s28.07,62.58,62.58,62.58,62.58-28.07,62.58-62.58-28.07-62.58-62.58-62.58Z" fill="#9ebeb6"/>
          </g>
          <g>
            <circle cx="40.41" cy="64.03" r="15.27" fill="#9ebeb6"/>
            <g opacity=".2">
              <circle cx="40.41" cy="64.03" r="9.98" fill="#fff"/>
            </g>
            <g opacity=".2">
              <path d="M40.41,48.76c-8.43,0-15.27,6.84-15.27,15.27s6.84,15.27,15.27,15.27,15.27-6.84,15.27-15.27-6.84-15.27-15.27-15.27ZM40.41,76.78c-7.05,0-12.76-5.71-12.76-12.76s5.71-12.76,12.76-12.76,12.76,5.71,12.76,12.76-5.71,12.76-12.76,12.76Z"/>
            </g>
          </g>
        </g>
        <g>
          <g>
            <circle cx="96.18" cy="95.11" r="38.28" transform="translate(-13.26 174.6) rotate(-80.67)" fill="#333d65"/>
            <path d="M96.18,134.39c-21.66,0-39.28-17.62-39.28-39.28s17.62-39.28,39.28-39.28,39.28,17.62,39.28,39.28-17.62,39.28-39.28,39.28ZM96.18,57.83c-20.56,0-37.28,16.72-37.28,37.28s16.72,37.28,37.28,37.28,37.28-16.72,37.28-37.28-16.72-37.28-37.28-37.28Z" fill="#9ebeb6"/>
            <g>
              <path d="M126.41,98.22c.1-1.02.16-2.06.16-3.11,0-2.45-.3-4.82-.84-7.1-1.68-7-5.77-13.07-11.36-17.25-5.07-3.79-11.36-6.04-18.18-6.04-16.78,0-30.39,13.61-30.39,30.39s13.61,30.39,30.39,30.39c3.67,0,7.19-.65,10.45-1.85,10.7-3.92,18.59-13.69,19.78-25.43Z" opacity=".2"/>
              <path d="M119.41,97.5c.08-.78.12-1.58.12-2.39,0-1.88-.23-3.7-.65-5.46-1.29-5.38-4.44-10.04-8.73-13.25-3.9-2.91-8.73-4.64-13.97-4.64-12.89,0-23.35,10.46-23.35,23.35s10.46,23.35,23.35,23.35c2.82,0,5.52-.5,8.03-1.42,8.22-3.01,14.28-10.52,15.2-19.54Z" opacity=".2"/>
            </g>
          </g>
          <g>
            <circle cx="123.11" cy="121.85" r="9.76" transform="translate(-24.1 213.15) rotate(-76.51)" fill="#9ebeb6"/>
            <g opacity=".2">
              <path d="M129.49,121.85c0,3.52-2.86,6.38-6.38,6.38s-6.38-2.86-6.38-6.38,2.86-6.38,6.38-6.38,6.38,2.86,6.38,6.38Z" fill="#fff"/>
            </g>
            <g opacity=".2">
              <path d="M123.11,112.09c-5.39,0-9.76,4.37-9.76,9.76s4.37,9.76,9.76,9.76,9.76-4.37,9.76-9.76-4.37-9.76-9.76-9.76ZM123.11,130.01c-4.51,0-8.16-3.65-8.16-8.16s3.65-8.16,8.16-8.16,8.16,3.65,8.16,8.16-3.65,8.16-8.16,8.16Z"/>
            </g>
          </g>
        </g>
        <g>
          <circle cx="96.18" cy="95.11" r="15.27" transform="translate(-28.88 43.57) rotate(-22.28)" fill="#b82823"/>
          <g opacity=".1">
            <circle cx="96.18" cy="95.11" r="9.98" transform="translate(-28.95 43.73) rotate(-22.36)" fill="#fff"/>
          </g>
          <g opacity=".2">
            <path d="M96.18,79.84c-8.43,0-15.27,6.84-15.27,15.27s6.84,15.27,15.27,15.27,15.27-6.84,15.27-15.27-6.84-15.27-15.27-15.27ZM96.18,107.87c-7.05,0-12.76-5.71-12.76-12.76s5.71-12.76,12.76-12.76,12.76,5.71,12.76,12.76-5.71,12.76-12.76,12.76Z"/>
          </g>
        </g>
        <g>
          <path d="M97.59,64.72c0,.78-.63,1.41-1.41,1.41s-1.41-.63-1.41-1.41.63-1.41,1.41-1.41,1.41.63,1.41,1.41Z" fill="#eae2b3"/>
          <path d="M115.71,139.71c0,.78-.63,1.41-1.41,1.41s-1.41-.63-1.41-1.41.63-1.41,1.41-1.41,1.41.63,1.41,1.41Z" fill="#eae2b3"/>
          <path d="M145.4,124.09c0,.78-.63,1.41-1.41,1.41s-1.41-.63-1.41-1.41.63-1.41,1.41-1.41,1.41.63,1.41,1.41Z" fill="#eae2b3"/>
          <path d="M127.98,94.6c0,.78-.63,1.41-1.41,1.41s-1.41-.63-1.41-1.41.63-1.41,1.41-1.41,1.41.63,1.41,1.41Z" fill="#eae2b3"/>
          <path d="M45.43,115.31c0,.78-.63,1.41-1.41,1.41s-1.41-.63-1.41-1.41.63-1.41,1.41-1.41,1.41.63,1.41,1.41Z" fill="#eae2b3"/>
          <path d="M96.52,151.01c0,.78-.63,1.41-1.41,1.41s-1.41-.63-1.41-1.41.63-1.41,1.41-1.41,1.41.63,1.41,1.41Z" fill="#eae2b3"/>
          <path d="M75.66,103.27c0,.78-.63,1.41-1.41,1.41s-1.41-.63-1.41-1.41.63-1.41,1.41-1.41,1.41.63,1.41,1.41Z" fill="#eae2b3"/>
          <path d="M67.89,133.39c0,.78-.63,1.41-1.41,1.41s-1.41-.63-1.41-1.41.63-1.41,1.41-1.41,1.41.63,1.41,1.41Z" fill="#eae2b3"/>
          <path d="M49.89,87.33c0,.78-.63,1.41-1.41,1.41s-1.41-.63-1.41-1.41.63-1.41,1.41-1.41,1.41.63,1.41,1.41Z" fill="#eae2b3"/>
          <path d="M153.47,94.6c0,.78-.63,1.41-1.41,1.41s-1.41-.63-1.41-1.41.63-1.41,1.41-1.41,1.41.63,1.41,1.41Z" fill="#eae2b3"/>
          <path d="M85.56,40.63c0,.78-.63,1.41-1.41,1.41s-1.41-.63-1.41-1.41.63-1.41,1.41-1.41,1.41.63,1.41,1.41Z" fill="#eae2b3"/>
          <path d="M114.27,49.72c0,.78-.63,1.41-1.41,1.41s-1.41-.63-1.41-1.41.63-1.41,1.41-1.41,1.41.63,1.41,1.41Z" fill="#eae2b3"/>
          <path d="M136.87,54.98c0,.78-.63,1.41-1.41,1.41s-1.41-.63-1.41-1.41.63-1.41,1.41-1.41,1.41.63,1.41,1.41Z" fill="#eae2b3"/>
        </g>
      </g>
      <g>
        <g>
          <path d="M43.5,145.98l-12.6,4.87c-.08.03-.15.04-.23.03-.08-.02-.14-.05-.2-.11-.09-.1-.13-.19-.13-.28s.03-.18.09-.25c.03-.04.08-.08.16-.12l13.19-4.99c.1-.04.19-.05.25-.03.06.02.13.07.19.13.07.08.11.16.12.24.01.08,0,.16-.04.23l-5.97,12.77s-.05.08-.1.12c-.09.08-.18.11-.28.1-.1-.01-.19-.06-.27-.15-.06-.07-.1-.14-.12-.23s0-.16.04-.24l5.82-12.42.09.32ZM34.76,149.1l.77-.33,4.35,4.69-.44.68-4.67-5.04Z" fill="#b82823"/>
          <path d="M54.74,154.55c.8.58,1.38,1.23,1.75,1.96.37.73.55,1.49.54,2.29,0,.8-.16,1.6-.46,2.41-.31.8-.72,1.57-1.25,2.29-.74,1.02-1.58,1.84-2.52,2.45-.94.61-1.93.92-2.98.93-1.05.01-2.11-.37-3.19-1.15l-4.15-3.01c-.08-.06-.14-.15-.15-.26-.02-.11,0-.21.07-.29l7.65-10.54c.06-.08.15-.14.26-.15s.21,0,.29.07l4.15,3.01ZM46.94,164.98c.98.71,1.93,1.06,2.85,1.06.92,0,1.8-.28,2.62-.83.83-.55,1.57-1.28,2.24-2.19.47-.65.85-1.33,1.12-2.04s.42-1.41.43-2.12c0-.7-.16-1.38-.48-2.02-.33-.64-.86-1.23-1.6-1.77l-3.74-2.71.19-.06-7.38,10.18v-.21s3.75,2.71,3.75,2.71Z" fill="#b82823"/>
          <path d="M71.06,163.45c.12.05.2.13.23.21.03.09.03.18-.02.27-.02.05-.06.1-.12.16l-10.35,9.55c-.07.05-.14.09-.22.1-.08.01-.15,0-.23-.03-.07-.03-.13-.09-.18-.16-.05-.07-.07-.15-.06-.23l.54-14s0-.07,0-.11.02-.09.04-.13c.04-.1.12-.16.22-.19.1-.03.2-.03.28,0,.18.08.27.24.26.47l-.51,13.37-.21-.12,9.86-9.1c.16-.12.3-.14.45-.08Z" fill="#b82823"/>
          <path d="M74.63,164.51l7.21,1.85c.1.03.18.09.24.18.06.1.07.2.05.3-.03.11-.09.2-.19.25-.09.05-.19.06-.29.04l-6.98-1.79.27-.28-1.52,5.92-.16-.33,6.15,1.58c.1.03.18.09.24.18.06.1.07.2.05.3-.03.11-.09.2-.19.25-.09.05-.19.06-.29.04l-6.12-1.57.25-.16-1.56,6.06-.05-.12,6.86,1.77c.1.03.18.09.24.18.06.1.07.2.05.3-.03.11-.09.2-.19.25-.09.05-.19.06-.29.04l-7.21-1.85c-.1-.03-.18-.09-.24-.18-.06-.1-.07-.19-.05-.3l3.25-12.61c.03-.1.09-.18.18-.24s.2-.07.3-.05Z" fill="#b82823"/>
          <path d="M95.34,167.66c.12,0,.21.05.27.13.06.08.09.17.08.27l-.84,12.98c0,.14-.06.25-.15.32-.09.07-.19.1-.29.09-.05,0-.11-.02-.17-.05s-.1-.07-.14-.13l-8.33-13.08.29-.12-.81,12.45c0,.09-.05.17-.12.23-.08.06-.17.09-.27.08-.12,0-.21-.05-.27-.12-.06-.07-.09-.15-.08-.24l.85-13.06c0-.14.05-.24.14-.3.08-.05.16-.08.24-.07.05,0,.1.02.16.04.05.02.09.06.13.12l8.29,13-.18.38.81-12.56c0-.1.05-.19.13-.26.08-.07.17-.1.26-.09Z" fill="#b82823"/>
          <path d="M99.11,168.3c-.11.01-.2-.01-.29-.07-.09-.06-.14-.14-.15-.25-.01-.1.02-.2.08-.28.07-.08.16-.13.26-.14l9.52-1.18c.1-.01.2.01.29.07.09.06.14.15.15.25.01.12-.01.21-.08.29s-.16.12-.26.13l-9.52,1.18ZM105.48,180.67c-.12.01-.22-.01-.3-.08s-.13-.16-.14-.26l-1.6-12.85.78-.1,1.6,12.85c.01.1-.01.2-.08.29-.07.09-.16.14-.26.15Z" fill="#b82823"/>
          <path d="M121.02,162.68c.11-.04.21-.03.31.02.09.05.16.13.19.23l2.63,8.11c.29.89.33,1.77.13,2.64s-.59,1.65-1.18,2.32c-.58.67-1.32,1.15-2.21,1.44-.89.29-1.77.33-2.64.13s-1.65-.6-2.33-1.19-1.16-1.33-1.45-2.22l-2.63-8.11c-.03-.1-.03-.2.02-.3.04-.1.13-.17.25-.21.11-.04.22-.03.32.02s.17.13.2.23l2.63,8.11c.24.75.65,1.38,1.21,1.88.56.5,1.22.84,1.96,1,.74.17,1.48.13,2.22-.11.75-.24,1.37-.65,1.87-1.22.49-.57.82-1.22.99-1.96s.13-1.48-.11-2.24l-2.63-8.11c-.03-.1-.03-.2.02-.3.04-.1.12-.17.24-.2Z" fill="#b82823"/>
          <path d="M132.3,172.68c-.12.06-.22.08-.33.05s-.18-.1-.23-.19l-6.4-11.34c-.05-.09-.06-.19-.03-.3.03-.11.09-.19.18-.24l4.54-2.56c.68-.38,1.34-.58,2.01-.6.66-.02,1.27.13,1.82.44.55.31,1,.76,1.33,1.36.3.53.47,1.06.52,1.59.05.53-.01,1.03-.19,1.5-.18.47-.45.89-.82,1.26l-.87.31c.46-.26.96-.39,1.51-.38.54,0,1.08.16,1.6.46.52.3.96.78,1.33,1.44.32.56.58.97.8,1.24.22.26.41.44.57.53.16.09.33.14.48.16.09,0,.18.04.25.08.07.05.12.13.15.23.02.08,0,.16-.02.23-.03.07-.07.13-.12.17s-.12.07-.21.07c-.21,0-.45-.05-.71-.15-.26-.1-.54-.3-.86-.62s-.67-.83-1.07-1.53c-.3-.54-.63-.92-.98-1.15-.35-.23-.7-.35-1.05-.38-.35-.03-.69.01-1.02.12s-.61.23-.85.36l-4.18,2.36.04-.29,2.96,5.24c.05.09.06.19.03.3-.03.11-.1.19-.2.25ZM129.06,166.5l4.42-2.49c.43-.3.78-.68,1.04-1.13.26-.45.4-.95.41-1.5.01-.55-.14-1.11-.46-1.67-.39-.7-.97-1.14-1.73-1.32-.76-.18-1.56-.04-2.41.44l-4.16,2.35.02-.17,3.15,5.59-.28-.09Z" fill="#b82823"/>
          <path d="M136.88,153.62l5.73-4.75c.08-.07.18-.09.29-.08.11.01.2.06.27.14.08.09.11.19.09.3-.01.11-.06.19-.14.26l-5.54,4.6-.06-.38,3.91,4.71-.36-.06,4.89-4.06c.08-.07.18-.1.29-.08s.2.06.27.14c.08.09.11.19.09.3-.01.11-.06.19-.14.26l-4.86,4.03v-.29s4.01,4.82,4.01,4.82l-.12-.03,5.45-4.52c.08-.07.18-.1.29-.09.11.01.2.06.27.14.08.09.11.19.09.3-.01.11-.06.19-.14.26l-5.73,4.75c-.08.07-.18.1-.29.09-.11-.01-.2-.06-.27-.14l-8.31-10.03c-.07-.08-.09-.18-.08-.29.01-.11.06-.2.14-.27Z" fill="#b82823"/>
          <path d="M158.15,152.71c-.66.78-1.37,1.34-2.12,1.66-.75.32-1.61.52-2.58.58-.04,0-.08,0-.13-.01-.05-.01-.11-.04-.17-.09-.08-.07-.13-.17-.14-.3-.01-.13.01-.24.08-.32.08-.09.2-.13.35-.14.8,0,1.55-.16,2.25-.49.7-.32,1.3-.77,1.8-1.35.44-.51.75-1.03.93-1.57.18-.54.22-1.05.12-1.55-.1-.49-.36-.91-.77-1.27-.51-.43-1.04-.65-1.58-.65s-1.09.12-1.66.37c-.57.25-1.14.53-1.71.85-.46.25-.92.48-1.38.71-.46.23-.92.39-1.39.49-.46.1-.93.1-1.4-.01-.47-.11-.94-.38-1.42-.79-.49-.42-.81-.94-.97-1.54-.16-.6-.15-1.25.05-1.95.19-.69.58-1.38,1.17-2.05.49-.57,1.07-1.03,1.74-1.39.67-.36,1.34-.51,2.02-.47.22.02.37.06.44.12.07.06.11.16.11.29,0,.13-.03.25-.11.34-.07.08-.16.12-.26.12-.39-.03-.79,0-1.18.11-.39.1-.78.27-1.15.51-.37.24-.71.53-1.02.89-.42.49-.73,1-.91,1.53s-.24,1.05-.15,1.54c.09.49.34.93.77,1.3.46.4.95.59,1.47.58.52,0,1.06-.13,1.6-.37.55-.24,1.09-.5,1.62-.79.46-.26.92-.52,1.4-.75.48-.24.96-.41,1.45-.51.49-.1.99-.09,1.49.03s1.02.41,1.54.87c.46.4.76.9.92,1.5.16.6.15,1.24-.03,1.93-.18.68-.55,1.36-1.12,2.04Z" fill="#b82823"/>
        </g>
        <g>
          <path d="M40.18,27.62c.6-.45,1.22-.71,1.86-.79s1.25.02,1.83.29c.58.27,1.1.71,1.54,1.31.44.59.71,1.22.81,1.88.1.66.03,1.29-.22,1.9-.25.61-.67,1.13-1.28,1.58l-3.53,2.6-.02-.16,3.49,4.73c.06.08.08.18.06.3-.02.11-.08.2-.16.26-.11.08-.21.11-.32.09-.1-.02-.19-.07-.25-.16l-7.73-10.48c-.06-.08-.09-.18-.07-.29s.07-.2.15-.26l3.81-2.81ZM44.27,33.16c.49-.36.82-.77,1.01-1.25s.23-.97.14-1.49c-.09-.52-.31-1.02-.66-1.5-.36-.49-.76-.84-1.22-1.05-.45-.21-.92-.29-1.42-.24-.49.05-.98.26-1.47.62l-3.51,2.59v-.11s3.7,5.03,3.7,5.03h-.1s3.53-2.6,3.53-2.6Z" fill="#b82823"/>
          <path d="M60.83,30.44c.09-.05.19-.06.3-.03.11.03.19.1.23.19.06.1.07.21.03.31-.04.1-.1.18-.19.23l-6.39,3.41c-.1.06-.21.07-.31.03-.1-.04-.18-.1-.23-.19l-6.13-11.49c-.05-.09-.06-.19-.03-.3s.1-.19.21-.24.21-.07.32-.03c.11.03.18.09.23.19l6.12,11.45-.48-.15,6.32-3.37Z" fill="#b82823"/>
          <path d="M64.26,16.21l-.56,13.5c0,.08-.02.16-.07.22s-.11.11-.18.14c-.12.04-.23.05-.31,0-.08-.04-.15-.1-.19-.18-.03-.04-.05-.11-.05-.19l.68-14.08c0-.11.03-.19.07-.25s.11-.09.2-.12c.1-.04.19-.04.26-.02.08.02.14.07.19.13l9.33,10.57s.05.08.07.14c.04.11.03.21-.02.3-.05.09-.13.15-.25.19-.09.03-.17.04-.26.02-.08-.02-.15-.06-.2-.13l-9.07-10.29.33.05ZM63.64,25.47v-.84s6.03-2.12,6.03-2.12l.45.68-6.48,2.27Z" fill="#b82823"/>
          <path d="M84.67,10.43c.12-.02.21,0,.29.06.08.06.12.14.14.25l2.08,12.84c.02.14,0,.26-.07.34-.07.08-.16.14-.27.15-.05,0-.11,0-.17-.01s-.12-.05-.17-.09l-11.04-10.89.25-.18,2,12.31c.01.09,0,.17-.07.25-.06.08-.14.12-.25.14-.12.02-.21,0-.29-.05-.08-.05-.12-.13-.13-.22l-2.09-12.92c-.02-.14,0-.25.07-.32s.14-.11.22-.13c.05,0,.11,0,.16,0,.06.01.11.04.15.08l10.99,10.81-.09.42-2.01-12.43c-.02-.1,0-.2.07-.28s.14-.13.24-.15Z" fill="#b82823"/>
          <path d="M92.4,9.93l7.44.12c.11,0,.2.04.27.12.08.08.12.17.11.28,0,.12-.04.21-.12.28s-.17.11-.28.1l-7.2-.12.2-.33-.1,6.12-.23-.28,6.35.1c.11,0,.2.04.27.12.08.08.12.17.11.28,0,.12-.04.21-.12.28s-.17.11-.28.1l-6.31-.1.2-.21-.1,6.25-.08-.1,7.08.12c.11,0,.2.04.27.12.08.08.12.17.11.28,0,.12-.04.21-.12.28-.08.07-.17.11-.28.1l-7.44-.12c-.11,0-.2-.04-.27-.12-.08-.08-.12-.17-.11-.28l.21-13.02c0-.1.04-.2.12-.27.08-.08.17-.12.28-.11Z" fill="#b82823"/>
          <path d="M104.82,11.11c-.1-.02-.19-.07-.26-.15-.07-.08-.09-.18-.08-.28.02-.1.07-.19.16-.25s.19-.08.29-.07l9.48,1.47c.1.02.19.07.26.15.07.08.09.18.08.28-.02.12-.07.2-.16.25s-.18.07-.29.06l-9.48-1.47ZM107.55,24.75c-.12-.02-.21-.07-.26-.16-.06-.09-.08-.19-.07-.29l1.99-12.79.78.12-1.99,12.79c-.02.1-.07.19-.16.25-.09.07-.19.09-.29.08Z" fill="#b82823"/>
          <path d="M123.09,15.26l-8.52,10.48c-.05.07-.11.11-.19.14-.08.02-.15.02-.23,0-.13-.04-.21-.1-.25-.18-.04-.08-.06-.17-.04-.26,0-.05.03-.12.08-.18l8.97-10.88c.07-.09.14-.14.2-.15s.14,0,.23.02c.1.03.17.08.22.14.05.06.07.14.08.22l1.16,14.05s0,.09-.03.16c-.04.11-.1.19-.2.23-.1.04-.2.04-.31,0-.09-.03-.16-.07-.21-.14-.05-.07-.08-.14-.08-.22l-1.11-13.67.24.24ZM117.06,22.31l.5-.67,6.1,1.91-.05.81-6.55-2.06Z" fill="#b82823"/>
          <path d="M128.03,30.7c-.12-.06-.19-.14-.22-.25s-.02-.2.03-.3l5.94-11.59c.05-.09.12-.16.23-.19.11-.03.21-.03.3.02l4.64,2.38c.69.35,1.23.8,1.61,1.34s.59,1.13.64,1.76-.09,1.25-.4,1.86c-.28.54-.62.98-1.04,1.31s-.87.56-1.36.67c-.49.11-.99.12-1.51.02l-.74-.55c.47.24.85.59,1.15,1.04s.46.98.5,1.58-.12,1.23-.46,1.9c-.29.57-.49,1.02-.59,1.35-.1.33-.14.58-.13.77.02.19.06.35.14.49.05.08.07.17.07.26,0,.09-.04.17-.11.25-.06.06-.13.09-.2.11-.07.01-.14.01-.21,0-.07-.02-.12-.06-.18-.13-.12-.18-.21-.4-.27-.67-.06-.27-.05-.62.05-1.06.09-.44.32-1.02.69-1.73.28-.55.42-1.03.42-1.45,0-.42-.09-.78-.26-1.09-.17-.31-.39-.57-.66-.78-.27-.21-.53-.38-.77-.51l-4.27-2.19.27-.13-2.74,5.36c-.05.09-.12.16-.23.19-.11.03-.21.02-.32-.03ZM131.4,24.6l4.51,2.31c.49.19,1,.27,1.52.24.52-.03,1.01-.19,1.48-.48.47-.29.85-.73,1.14-1.3.37-.71.42-1.44.15-2.17-.27-.74-.83-1.33-1.7-1.77l-4.25-2.18.15-.08-2.92,5.71-.08-.28Z" fill="#b82823"/>
          <path d="M154.02,30.41c.11.08.16.17.16.29,0,.11-.02.2-.06.25-.03.04-.06.08-.1.1-.03.02-.07.04-.12.06l-7.51,2.41.48-.36-4.15,5.74c-.06.08-.15.14-.26.15s-.21,0-.31-.08c-.11-.08-.17-.17-.18-.28-.01-.11.01-.2.07-.29l4.07-5.63-.16.39-.04-7.84s0-.09.02-.13c.01-.04.03-.08.07-.12.06-.08.15-.13.27-.13s.21.02.29.07c.12.08.17.2.17.34l.05,7.41-.14-.15,7-2.28c.13-.05.26-.03.38.05Z" fill="#b82823"/>
        </g>
      </g>
      <g>
        <g>
          <path d="M72.84,49.72h0c.95,1.73,2.37,3.16,4.1,4.1h0c-1.73.95-3.16,2.37-4.1,4.1h0c-.95-1.73-2.37-3.16-4.1-4.1h0c1.73-.95,3.16-2.37,4.1-4.1h0Z" fill="#b82823"/>
          <path d="M72.84,58.93c-.37,0-.7-.2-.88-.52-.86-1.57-2.14-2.85-3.71-3.71-.32-.18-.52-.51-.52-.88s.2-.7.52-.88c1.57-.86,2.85-2.14,3.71-3.71.35-.64,1.4-.64,1.75,0,.86,1.57,2.14,2.85,3.71,3.71.32.18.52.51.52.88s-.2.7-.52.88c-1.57.86-2.85,2.14-3.71,3.71-.18.32-.51.52-.88.52ZM70.58,53.82c.86.64,1.62,1.4,2.26,2.26.64-.86,1.4-1.62,2.26-2.26-.86-.64-1.62-1.4-2.26-2.26-.64.86-1.4,1.62-2.26,2.26Z" fill="#333d65"/>
          <path d="M72.84,52.66h0c.27.49.67.89,1.16,1.16h0c-.49.27-.89.67-1.16,1.16h0c-.27-.49-.67-.89-1.16-1.16h0c.49-.27.89-.67,1.16-1.16h0Z" opacity=".2"/>
        </g>
        <g>
          <path d="M33.69,97.74h0c.95,1.73,2.37,3.16,4.1,4.1h0c-1.73.95-3.16,2.37-4.1,4.1h0c-.95-1.73-2.37-3.16-4.1-4.1h0c1.73-.95,3.16-2.37,4.1-4.1h0Z" fill="#b82823"/>
          <path d="M33.69,106.94h0c-.37,0-.7-.2-.88-.52-.86-1.57-2.14-2.85-3.71-3.71-.32-.18-.52-.51-.52-.88s.2-.7.52-.88c1.57-.86,2.85-2.14,3.7-3.71.35-.64,1.4-.64,1.75,0,.86,1.57,2.14,2.85,3.71,3.71.32.18.52.51.52.88s-.2.7-.52.88c-1.57.86-2.85,2.14-3.71,3.71-.18.32-.51.52-.88.52ZM31.43,101.84c.86.64,1.62,1.4,2.26,2.26.64-.86,1.4-1.62,2.26-2.26-.86-.64-1.62-1.4-2.26-2.26-.64.86-1.4,1.62-2.26,2.26Z" fill="#333d65"/>
          <path d="M33.69,100.76h0c.25.45.62.83,1.08,1.08h0c-.45.25-.83.62-1.08,1.08h0c-.25-.45-.62-.83-1.08-1.08h0c.45-.25.83-.62,1.08-1.08h0Z" opacity=".2"/>
        </g>
        <g>
          <path d="M155.08,106.9h0c1.45,2.65,3.63,4.84,6.29,6.29h0c-2.65,1.45-4.84,3.63-6.29,6.29h0c-1.45-2.65-3.63-4.84-6.29-6.29h0c2.65-1.45,4.84-3.63,6.29-6.29h0Z" fill="#b82823"/>
          <path d="M155.08,120.48c-.37,0-.7-.2-.88-.52-1.36-2.49-3.4-4.53-5.89-5.89-.32-.18-.52-.51-.52-.88s.2-.7.52-.88c2.49-1.36,4.53-3.4,5.89-5.89.35-.64,1.4-.64,1.75,0,1.36,2.49,3.4,4.53,5.89,5.89.32.18.52.51.52.88s-.2.7-.52.88c-2.49,1.36-4.53,3.4-5.89,5.89-.18.32-.51.52-.88.52ZM150.7,113.19c1.72,1.18,3.2,2.66,4.38,4.38,1.18-1.72,2.66-3.2,4.38-4.38-1.72-1.18-3.2-2.66-4.38-4.38-1.18,1.72-2.66,3.2-4.38,4.38Z" fill="#333d65"/>
          <path d="M155.08,110.98h0c.51.93,1.28,1.7,2.21,2.21h0c-.93.51-1.7,1.28-2.21,2.21h0c-.51-.93-1.28-1.7-2.21-2.21h0c.93-.51,1.7-1.28,2.21-2.21h0Z" opacity=".2"/>
        </g>
        <g>
          <path d="M16.78,81.04h0c1.45,2.65,3.63,4.84,6.29,6.29h0c-2.65,1.45-4.84,3.63-6.29,6.29h0c-1.45-2.65-3.63-4.84-6.29-6.29h0c2.65-1.45,4.84-3.63,6.29-6.29h0Z" fill="#9ebeb6"/>
          <path d="M16.78,94.62c-.37,0-.7-.2-.88-.52-1.36-2.49-3.4-4.53-5.89-5.89-.32-.18-.52-.51-.52-.88s.2-.7.52-.88c2.49-1.36,4.53-3.4,5.89-5.89.35-.64,1.4-.64,1.75,0,1.36,2.49,3.4,4.53,5.89,5.89.32.18.52.51.52.88s-.2.7-.52.88c-2.49,1.36-4.53,3.4-5.89,5.89-.18.32-.51.52-.88.52ZM12.4,87.33c1.72,1.18,3.2,2.66,4.38,4.38,1.18-1.72,2.66-3.2,4.38-4.38-1.72-1.18-3.2-2.66-4.38-4.38-1.18,1.72-2.66,3.2-4.38,4.38Z" fill="#333d65"/>
          <path d="M16.78,85.11h0c.51.93,1.28,1.7,2.21,2.21h0c-.93.51-1.7,1.28-2.21,2.21h0c-.51-.93-1.28-1.7-2.21-2.21h0c.93-.51,1.7-1.28,2.21-2.21h0Z" opacity=".2"/>
        </g>
        <g>
          <path d="M175.56,90.49h0c.95,1.73,2.37,3.16,4.1,4.1h0c-1.73.95-3.16,2.37-4.1,4.1h0c-.95-1.73-2.37-3.16-4.1-4.1h0c1.73-.95,3.16-2.37,4.1-4.1h0Z" fill="#9ebeb6"/>
          <path d="M175.56,99.7c-.37,0-.7-.2-.88-.52-.86-1.57-2.14-2.85-3.71-3.71-.32-.18-.52-.51-.52-.88s.2-.7.52-.88c1.57-.86,2.85-2.14,3.71-3.71.35-.64,1.4-.64,1.75,0,.86,1.57,2.14,2.85,3.71,3.71.32.18.52.51.52.88s-.2.7-.52.88c-1.57.86-2.85,2.14-3.71,3.71-.18.32-.51.52-.88.52ZM173.3,94.6c.86.64,1.62,1.4,2.26,2.26.64-.86,1.4-1.62,2.26-2.26-.86-.64-1.62-1.4-2.26-2.26-.64.86-1.4,1.62-2.26,2.26Z" fill="#333d65"/>
          <path d="M175.56,93.43h0c.27.49.67.89,1.16,1.16h0c-.49.27-.89.67-1.16,1.16h0c-.27-.49-.67-.89-1.16-1.16h0c.49-.27.89-.67,1.16-1.16h0Z" opacity=".2"/>
        </g>
        <g>
          <path d="M145.4,65.68h0c.95,1.73,2.37,3.16,4.1,4.1h0c-1.73.95-3.16,2.37-4.1,4.1h0c-.95-1.73-2.37-3.16-4.1-4.1h0c1.73-.95,3.16-2.37,4.1-4.1h0Z" fill="#9ebeb6"/>
          <path d="M145.4,74.89h0c-.37,0-.7-.2-.88-.52-.86-1.57-2.14-2.85-3.71-3.71-.32-.18-.52-.51-.52-.88s.2-.7.52-.88c1.57-.86,2.85-2.14,3.7-3.71.35-.64,1.4-.64,1.75,0,.86,1.57,2.14,2.85,3.71,3.71.32.18.52.51.52.88s-.2.7-.52.88c-1.57.86-2.85,2.14-3.71,3.71-.18.32-.51.52-.88.52ZM143.14,69.79c.86.64,1.62,1.4,2.26,2.26.64-.86,1.4-1.62,2.26-2.26-.86-.64-1.62-1.4-2.26-2.26-.64.86-1.4,1.62-2.26,2.26Z" fill="#333d65"/>
          <path d="M145.4,68.71h0c.25.45.62.83,1.08,1.08h0c-.45.25-.83.62-1.08,1.08h0c-.25-.45-.62-.83-1.08-1.08h0c.45-.25.83-.62,1.08-1.08h0Z" opacity=".2"/>
        </g>
      </g>
      <g>
        <path d="M168.56,128.23c0,.78-.63,1.41-1.41,1.41s-1.41-.63-1.41-1.41.63-1.41,1.41-1.41,1.41.63,1.41,1.41Z" fill="#333d65"/>
        <path d="M176.97,113.19c0,.78-.63,1.41-1.41,1.41s-1.41-.63-1.41-1.41.63-1.41,1.41-1.41,1.41.63,1.41,1.41Z" fill="#9ebeb6"/>
        <path d="M179.66,79.31c0,.78-.63,1.41-1.41,1.41s-1.41-.63-1.41-1.41.63-1.41,1.41-1.41,1.41.63,1.41,1.41Z" fill="#333d65"/>
        <path d="M166.19,66.72c0,.78-.63,1.41-1.41,1.41s-1.41-.63-1.41-1.41.63-1.41,1.41-1.41,1.41.63,1.41,1.41Z" fill="#9ebeb6"/>
        <path d="M163.11,46.75c0,.78-.63,1.41-1.41,1.41s-1.41-.63-1.41-1.41.63-1.41,1.41-1.41,1.41.63,1.41,1.41Z" fill="#333d65"/>
        <path d="M23.48,128.23c0,.78.63,1.41,1.41,1.41s1.41-.63,1.41-1.41-.63-1.41-1.41-1.41-1.41.63-1.41,1.41Z" fill="#333d65"/>
        <path d="M15.08,113.19c0,.78.63,1.41,1.41,1.41s1.41-.63,1.41-1.41-.63-1.41-1.41-1.41-1.41.63-1.41,1.41Z" fill="#9ebeb6"/>
        <path d="M15.08,68.13c0,.78.63,1.41,1.41,1.41s1.41-.63,1.41-1.41-.63-1.41-1.41-1.41-1.41.63-1.41,1.41Z" fill="#9ebeb6"/>
        <path d="M30.02,41.04c0,.78.63,1.41,1.41,1.41s1.41-.63,1.41-1.41-.63-1.41-1.41-1.41-1.41.63-1.41,1.41Z" fill="#333d65"/>
      </g>
    </g>
  </g>
</svg>